<svg width="45" height="47" viewBox="0 0 45 47" fill="none" xmlns="http://www.w3.org/2000/svg">
<path d="M44.4299 28.7592L36.5092 29.1488C46.5952 28.2464 43.6478 21.8302 43.6478 21.8302L34.9213 24.8642C44.8827 21.4202 40.149 15.8031 40.149 15.8031L34.1113 20.6678C40.5258 15.3384 35.9092 11.2111 35.9092 11.2111L31.2577 17.5661C32.3692 16.0491 33.3159 13.2201 33.3159 13.2201C34.7566 8.99713 30.5168 6.08612 30.5168 6.08612C30.1052 8.83314 27.018 15.1061 27.018 15.1061C27.018 15.1061 28.8291 11.1701 28.4587 7.15212C28.0882 3.13413 23.1201 0.756119 23.1201 0.756119L23.3545 17.9352C23.6018 18.0583 23.8425 18.1959 24.0808 18.3353C25.2395 19.0133 26.3602 19.809 27.2861 20.7846C28.4027 21.9612 28.8231 23.3918 28.7222 24.9981C28.697 25.3999 28.6438 25.8055 28.4908 26.1781C28.0804 27.1774 26.8211 27.7858 25.7832 27.5702C24.318 27.2657 24.4789 24.9461 24.4789 24.9461C24.4789 24.9461 24.4884 21.8457 25.1603 21.3555H20.0593C20.0593 21.3555 17.5704 22.0059 18.6398 24.4285C18.6279 24.4015 18.9423 24.2135 18.9653 24.2C19.1936 24.0659 19.4507 23.9611 19.718 23.9465C19.9771 23.9324 20.2291 24.0246 20.4235 24.1947C20.6872 24.4256 20.8689 24.757 20.8795 25.11C20.8859 25.3243 20.8334 25.5338 20.7943 25.743C20.7564 25.9459 20.6957 26.1381 20.6169 26.3298C20.4647 26.7002 20.232 27.0441 19.9006 27.2775C19.6897 27.4261 19.4495 27.5199 19.197 27.5702C18.1554 27.7678 16.8997 27.1774 16.4894 26.1781C16.3364 25.8055 16.2832 25.3999 16.258 24.9981C16.157 23.3918 16.5775 21.9612 17.6941 20.7846C18.62 19.809 19.7406 19.0134 20.8994 18.3354C21.1377 18.196 21.3784 18.0584 21.6257 17.9352L21.8601 0.756177C21.8601 0.756177 16.892 3.13419 16.5215 7.15221C16.151 11.1702 17.9622 15.1062 17.9622 15.1062C17.9622 15.1062 14.8749 8.83314 14.4633 6.08612C14.4633 6.08612 10.2235 8.99713 11.6642 13.2201C11.6642 13.2201 12.6109 16.0491 13.7223 17.5661L9.07091 11.2111C9.07091 11.2111 4.45426 15.3384 10.8688 20.6678L4.83112 15.8031C4.83112 15.8031 0.0973788 21.4202 10.0588 24.8642L1.33226 21.8302C1.33226 21.8302 -1.61515 28.2464 8.47087 29.1488L0.550164 28.7592C0.550164 28.7592 0.26202 36.6722 12.2816 32.9412L4.00786 35.4832C4.00786 35.4832 8.90624 40.4442 15.8628 35.4832L13.0637 38.2302C13.0637 38.2302 17.2624 38.7632 19.8968 36.1802C19.8968 36.1802 19.3205 40.8542 13.8458 46.6352C13.8458 46.6352 17.7563 47.4142 19.6498 44.7902C19.6498 44.7902 19.691 45.7332 19.4028 46.2662C19.4028 46.2662 19.8556 46.7433 22.4901 46.7433C25.1245 46.7433 25.5773 46.2662 25.5773 46.2662C25.2891 45.7332 25.3303 44.7902 25.3303 44.7902C27.2238 47.4142 31.1343 46.6352 31.1343 46.6352C25.6596 40.8542 25.0833 36.1802 25.0833 36.1802C27.7177 38.7632 31.9164 38.2302 31.9164 38.2302L29.1173 35.4832C36.0739 40.4442 40.9722 35.4832 40.9722 35.4832L32.6985 32.9412C44.7181 36.6722 44.4299 28.7592 44.4299 28.7592Z" fill="#3197BC"/>
</svg>
