<svg width="36" height="39" viewBox="0 0 36 39" fill="none" xmlns="http://www.w3.org/2000/svg">
<path d="M35.5439 23.864L29.2073 24.1873C37.2761 23.4385 34.9182 18.1144 34.9182 18.1144L27.937 20.632C35.9061 17.7742 32.1191 13.1132 32.1191 13.1132L27.289 17.1499C32.4206 12.7276 28.7273 9.30284 28.7273 9.30284L25.0062 14.5762C25.8953 13.3174 26.6527 10.9699 26.6527 10.9699C27.8052 7.4657 24.4134 5.05018 24.4134 5.05018C24.0841 7.32962 21.6143 12.5349 21.6143 12.5349C21.6143 12.5349 23.0633 9.26881 22.7669 5.93473C22.4705 2.60065 18.496 0.627411 18.496 0.627411L18.6835 14.8824C18.8814 14.9846 19.074 15.0987 19.2646 15.2144C20.1916 15.777 21.0881 16.4372 21.8288 17.2468C22.7221 18.2231 23.0585 19.4102 22.9777 20.7431C22.9575 21.0765 22.915 21.413 22.7926 21.7222C22.4643 22.5514 21.4569 23.0563 20.6265 22.8774C19.4544 22.6247 19.5831 20.7 19.5831 20.7C19.5831 20.7 19.5907 18.1272 20.1282 17.7205H16.0474C16.0474 17.7205 14.0563 18.2602 14.9118 20.2704C14.9023 20.248 15.1538 20.092 15.1722 20.0808C15.3549 19.9695 15.5605 19.8826 15.7743 19.8705C15.9817 19.8588 16.1833 19.9353 16.3387 20.0765C16.5497 20.268 16.6951 20.543 16.7036 20.8359C16.7087 21.0137 16.6667 21.1876 16.6354 21.3612C16.6051 21.5296 16.5565 21.6891 16.4935 21.8481C16.3717 22.1555 16.1855 22.4408 15.9205 22.6345C15.7517 22.7578 15.5596 22.8357 15.3576 22.8774C14.5243 23.0414 13.5197 22.5515 13.1915 21.7223C13.0691 21.4131 13.0265 21.0765 13.0063 20.7431C12.9256 19.4102 13.262 18.2231 14.1553 17.2468C14.8959 16.4373 15.7925 15.7771 16.7195 15.2145C16.9101 15.0988 17.1027 14.9846 17.3005 14.8824L17.488 0.627459C17.488 0.627459 13.5135 2.6007 13.2172 5.9348C12.9208 9.26891 14.3697 12.5349 14.3697 12.5349C14.3697 12.5349 11.8999 7.32962 11.5706 5.05018C11.5706 5.05018 8.17872 7.4657 9.3313 10.9699C9.3313 10.9699 10.0887 13.3174 10.9778 14.5762L7.25669 9.30286C7.25669 9.30286 3.56337 12.7276 8.69499 17.1499L3.86486 13.1132C3.86486 13.1132 0.0778603 17.7742 8.04701 20.632L1.06577 18.1144C1.06577 18.1144 -1.29216 23.4385 6.77665 24.1873L0.440088 23.864C0.440088 23.864 0.209573 30.4301 9.82524 27.3342L3.20624 29.4435C3.20624 29.4435 7.12495 33.5601 12.6902 29.4435L10.4509 31.7229C10.4509 31.7229 13.8098 32.1652 15.9174 30.0219C15.9174 30.0219 15.4564 33.9003 11.0766 38.6973C11.0766 38.6973 14.205 39.3437 15.7198 37.1664C15.7198 37.1664 15.7527 37.9488 15.5222 38.3911C15.5222 38.3911 15.8845 38.787 17.992 38.787C20.0995 38.787 20.4618 38.3911 20.4618 38.3911C20.2313 37.9488 20.2642 37.1664 20.2642 37.1664C21.779 39.3437 24.9074 38.6973 24.9074 38.6973C20.5276 33.9003 20.0666 30.0219 20.0666 30.0219C22.1742 32.1652 25.5331 31.7229 25.5331 31.7229L23.2938 29.4435C28.859 33.5601 32.7778 29.4435 32.7778 29.4435L26.1587 27.3342C35.7744 30.4301 35.5439 23.864 35.5439 23.864Z" fill="white"/>
</svg>
